HIERARCHY
ROOT Hips
{
	OFFSET 0.00000 0.00000 0.00000
	CHANNELS 6 Xposition Yposition Zposition Zrotation Yrotation Xrotation 
	JOINT LHipJoint
	{
		OFFSET 0 0 0
		CHANNELS 3 Zrotation Yrotation Xrotation
		JOINT LeftHip
		{
			OFFSET 1.55020 -1.87941 0.79896
			CHANNELS 3 Zrotation Yrotation Xrotation
			JOINT LeftKnee
			{
				OFFSET 2.65269 -7.28822 0.00000
				CHANNELS 3 Zrotation Yrotation Xrotation
				JOINT LeftAnkle
				{
					OFFSET 2.61200 -7.17641 0.00000
					CHANNELS 3 Zrotation Yrotation Xrotation
					JOINT LeftToe
					{
						OFFSET 0.09338 -0.25656 1.92461
						CHANNELS 3 Zrotation Yrotation Xrotation
						End Site
						{
							OFFSET 0.00000 -0.00000 0.98480
						}
					}
				}
			}
		}
	}
	JOINT RHipJoint
	{
		OFFSET 0 0 0
		CHANNELS 3 Zrotation Yrotation Xrotation
		JOINT RightHip
		{
			OFFSET -1.56866 -1.87941 0.79895
			CHANNELS 3 Zrotation Yrotation Xrotation
			JOINT RightKnee
			{
				OFFSET -2.60199 -7.14892 0.00000
				CHANNELS 3 Zrotation Yrotation Xrotation
				JOINT RightAnkle
				{
					OFFSET -2.62841 -7.22151 0.00000
					CHANNELS 3 Zrotation Yrotation Xrotation
					JOINT RightToe
					{
						OFFSET -0.19532 -0.53663 1.93132
						CHANNELS 3 Zrotation Yrotation Xrotation
						End Site
						{
							OFFSET -0.00000 -0.00000 1.00896
						}
					}
				}
			}
		}
	}
	JOINT lowerback
	{
		OFFSET 0 0 0
		CHANNELS 3 Zrotation Yrotation Xrotation
		JOINT Chest
		{
			OFFSET 0.06381 2.07806 -0.22112
			CHANNELS 3 Zrotation Yrotation Xrotation
			JOINT Chest2
			{
				OFFSET -0.02881 2.08890 0.01825
				CHANNELS 3 Zrotation Yrotation Xrotation
				JOINT lowerneck
				{
					OFFSET 0 0 0
					CHANNELS 3 Zrotation Yrotation Xrotation
					JOINT Neck
					{
						OFFSET 0.02418 1.74325 -0.02023
						CHANNELS 3 Zrotation Yrotation Xrotation
						JOINT Head
						{
							OFFSET -0.01704 1.71677 0.04090
							CHANNELS 3 Zrotation Yrotation Xrotation
							End Site
							{
								OFFSET -0.00946 1.78238 0.01684
							}
						}
					}
				}
				JOINT LeftCollar
				{
					OFFSET 0 0 0
					CHANNELS 3 Zrotation Yrotation Xrotation
					JOINT LeftShoulder
					{
						OFFSET 3.39783 1.34157 0.16610
CHANNELS 3 Zrotation Xrotation Yrotation
						JOINT LeftElbow
						{
OFFSET 0 -5.152180 0.000000
CHANNELS 3 Zrotation Xrotation Yrotation
							JOINT LeftWrist
							{
OFFSET 0 -3.494590 0.000000
CHANNELS 3 Zrotation Xrotation Yrotation
								JOINT lhand
								{
									OFFSET 0 0 0
CHANNELS 3 Zrotation Xrotation Yrotation
									JOINT LFingers
									{
OFFSET 0 -0.512470 0.000000
CHANNELS 3 Zrotation Xrotation Yrotation
										End Site
										{
OFFSET 0 -0.413160 0.000000
										}
									}
								}
								JOINT LThumb
								{
OFFSET 0 0.000000 0.000000
CHANNELS 3 Zrotation Xrotation Yrotation
									End Site
									{
OFFSET 0 -0.419470 0.419470
									}
								}
							}
						}
					}
				}
				JOINT RightCollar
				{
					OFFSET 0 0 0
					CHANNELS 3 Zrotation Yrotation Xrotation
					JOINT RightShoulder
					{
						OFFSET -3.26224 1.05509 0.01188
CHANNELS 3 Zrotation Xrotation Yrotation
						JOINT RightElbow
						{
OFFSET 0 -5.443440 0.000000
CHANNELS 3 Zrotation Xrotation Yrotation
							JOINT RightWrist
							{
OFFSET 0 -3.584030 0.000000
CHANNELS 3 Zrotation Xrotation Yrotation
								JOINT rhand
								{
									OFFSET 0 0 0
CHANNELS 3 Zrotation Xrotation Yrotation
									JOINT RFingers
									{
OFFSET 0 -0.342490 0.000000
CHANNELS 3 Zrotation Xrotation Yrotation
										End Site
										{
OFFSET 0 -0.276120 0.000000
										}
									}
								}
								JOINT RThumb
								{
OFFSET 0 0.000000 0.000000
CHANNELS 3 Zrotation Xrotation Yrotation
									End Site
									{
OFFSET 0 -0.280340 0.280340
									}
								}
							}
						}
					}
				}
			}
		}
	}
}
MOTION
Frames: 11
Frame Time: 0.008333333333333333
-15.804300 16.388000 -1.634900 -6.026400 76.272400 -0.443500 0.000000 0.000000 0.000000 -17.683400 -2.378300 -37.534700 10.755800 17.813500 61.986000 1.390100 -15.688800 -22.296300 0.594200 -4.934800 -13.722700 0.000000 0.000000 0.000000 19.021400 20.607100 -34.034700 -10.149800 -17.493200 59.987700 -2.015500 5.595200 -25.664700 -1.157400 6.830100 -19.213100 -2.732700 -3.774400 21.116700 -2.839700 -5.559500 3.734400 -0.030400 -2.535000 -7.720900 7.348100 6.712900 1.383400 -3.892300 9.047900 -4.154400 -2.567600 4.494500 -1.014000 -0.000000 0.000000 0.000000 31.196300 -48.069200 -16.562700 53.130200 -54.182500 28.693600 22.461900 -12.462000 -30.610600 0.000000 0.000000 0.000000 -7.125000 0.000000 0.000000 -10.854500 62.286500 4.590500 -0.000000 0.000000 0.000000 -6.726300 5.292500 49.467000 -22.871600 -33.948100 -7.066400 -18.984200 28.301400 30.320400 0.000000 0.000000 0.000000 7.125000 0.000000 -0.000000 14.585400 61.126000 -5.799300
-15.816685 16.383381 -1.629210 -5.793231 76.340215 -0.197411 0.000000 0.000000 0.000000 -17.709977 -2.420877 -37.634983 10.779833 17.825684 62.064593 1.384343 -15.732984 -22.270392 0.587773 -4.908491 -13.647655 0.000000 0.000000 0.000000 18.943409 20.660991 -34.179636 -10.192979 -17.516898 60.131364 -2.009207 5.547535 -25.628081 -1.130689 6.753247 -18.986558 -2.804063 -3.764358 21.215176 -2.875248 -5.563784 3.766467 -0.022902 -2.533460 -7.734758 7.326745 6.704666 1.374162 -3.857556 9.037925 -4.289361 -2.556487 4.487872 -1.058786 0.000000 0.000000 0.000000 31.216317 -48.249817 -16.526684 53.258065 -54.227822 28.797298 22.365767 -12.413800 -30.671788 0.000000 0.000000 0.000000 -7.125000 0.000000 0.000000 -11.006666 62.322717 4.665144 0.000000 0.000000 0.000000 -6.707622 5.227162 49.681960 -23.142593 -34.243729 -7.218633 -19.172114 28.276496 30.438357 0.000000 0.000000 0.000000 7.125000 0.000000 0.000000 14.460414 61.287203 -5.803518
-15.831374 16.375779 -1.623214 -5.737170 76.357467 -0.107113 0.000000 0.000000 0.000000 -17.675383 -2.426378 -37.802030 10.818947 17.845324 62.192259 1.371672 -15.808109 -22.207680 0.570197 -4.835108 -13.438880 0.000000 0.000000 0.000000 18.907543 20.776493 -34.359275 -10.245818 -17.545714 60.306782 -2.000644 5.515087 -25.574687 -1.098725 6.660093 -18.712402 -2.841672 -3.738592 21.305518 -2.909440 -5.539263 3.805820 -0.041364 -2.519246 -7.739736 7.334907 6.692602 1.305108 -3.836537 9.019004 -4.393448 -2.551203 4.476738 -1.081917 0.000000 0.000000 0.000000 31.283067 -48.471645 -16.477721 53.372814 -54.268399 28.890456 22.288138 -12.361668 -30.773575 0.000000 0.000000 0.000000 -7.125000 0.000000 0.000000 -11.165677 62.404143 4.755038 0.000000 0.000000 0.000000 -6.668408 5.133763 49.880043 -23.404368 -34.527496 -7.366460 -19.437162 28.293989 30.426279 0.000000 0.000000 0.000000 7.125000 0.000000 0.000000 14.157337 61.340671 -5.697661
-15.848334 16.365236 -1.616896 -5.853905 76.325395 -0.168977 0.000000 0.000000 0.000000 -17.580959 -2.395590 -38.034295 10.872765 17.872230 62.367764 1.352096 -15.914041 -22.108186 0.541431 -4.714319 -13.095455 0.000000 0.000000 0.000000 18.912889 20.952251 -34.572779 -10.308166 -17.579564 60.513466 -1.989863 5.497580 -25.504894 -1.061693 6.551166 -18.392187 -2.846619 -3.697430 21.388360 -2.942320 -5.486636 3.852331 -0.084993 -2.492649 -7.736199 7.371382 6.676821 1.177762 -3.828258 8.991398 -4.467653 -2.551321 4.461222 -1.084055 0.000000 0.000000 0.000000 31.395569 -48.733806 -16.416361 53.474886 -54.304384 28.973426 22.230253 -12.306086 -30.914262 0.000000 0.000000 0.000000 -7.125000 0.000000 0.000000 -11.328932 62.529406 4.858687 0.000000 0.000000 0.000000 -6.608958 5.013361 50.061419 -23.657548 -34.800068 -7.510236 -19.778287 28.354082 30.289585 0.000000 0.000000 0.000000 7.125000 0.000000 0.000000 13.681139 61.291440 -5.485446
-15.867078 16.352047 -1.608595 -5.974607 76.292927 -0.247370 0.000000 0.000000 0.000000 -17.473378 -2.354687 -38.274493 10.926120 17.898673 62.541353 1.319695 -16.069688 -21.938682 0.487809 -4.475259 -12.418173 0.000000 0.000000 0.000000 18.928086 21.140835 -34.787673 -10.377655 -17.616785 60.743287 -1.978884 5.487940 -25.432259 -1.029024 6.452222 -18.102450 -2.872192 -3.651707 21.505447 -2.975993 -5.433347 3.902941 -0.116524 -2.464465 -7.744166 7.369909 6.662427 1.054450 -3.768744 8.967164 -4.560104 -2.528962 4.446963 -1.096507 0.000000 0.000000 0.000000 31.521426 -49.006941 -16.373114 53.586082 -54.343212 29.063735 22.306704 -12.280915 -30.999416 0.000000 0.000000 0.000000 -7.125000 0.000000 0.000000 -11.299409 62.634107 4.873683 0.000000 0.000000 0.000000 -6.533377 4.922049 50.223359 -23.942063 -35.102257 -7.673515 -20.186249 28.513009 30.328480 0.000000 0.000000 0.000000 7.125000 0.000000 0.000000 13.251151 61.431021 -5.352829
-15.885476 16.339345 -1.599252 -5.937555 76.331991 -0.233222 0.000000 0.000000 0.000000 -17.411704 -2.355453 -38.426248 10.982358 17.926366 62.724212 1.293822 -16.207208 -21.807652 0.446756 -4.287278 -11.886388 0.000000 0.000000 0.000000 18.925226 21.233683 -34.955410 -10.453394 -17.656958 60.993215 -1.971030 5.486807 -25.379521 -0.997570 6.355743 -17.820317 -2.941240 -3.630429 21.687329 -3.013451 -5.421381 3.976366 -0.113643 -2.453817 -7.756994 7.351143 6.651472 0.940756 -3.705757 8.948312 -4.682209 -2.503824 4.435343 -1.120730 0.000000 0.000000 0.000000 31.649748 -49.260873 -16.284830 53.712799 -54.387318 29.166718 22.330791 -12.262966 -31.045261 0.000000 0.000000 0.000000 -7.125000 0.000000 0.000000 -11.303361 62.686028 4.889269 0.000000 0.000000 0.000000 -6.464185 4.804588 50.406446 -24.210259 -35.385244 -7.828216 -20.531152 28.625509 30.389738 0.000000 0.000000 0.000000 7.125000 0.000000 0.000000 12.905927 61.577337 -5.255630
-15.903586 16.327024 -1.588911 -5.748942 76.438882 -0.129284 0.000000 0.000000 0.000000 -17.393845 -2.396105 -38.494672 11.041571 17.955356 62.916638 1.274258 -16.327037 -21.713752 0.417981 -4.149617 -11.497859 0.000000 0.000000 0.000000 18.904965 21.235612 -35.079175 -10.535287 -17.700035 61.262938 -1.965873 5.490647 -25.344224 -0.968613 6.265807 -17.557664 -3.051915 -3.632279 21.930267 -3.054647 -5.448587 4.071822 -0.078101 -2.459789 -7.773740 7.316370 6.643780 0.835113 -3.640160 8.934483 -4.832188 -2.476287 4.426191 -1.155806 0.000000 0.000000 0.000000 31.781254 -49.496576 -16.153409 53.854680 -54.436572 29.282084 22.305588 -12.252918 -31.052115 0.000000 0.000000 0.000000 -7.125000 0.000000 0.000000 -11.337433 62.686286 4.904274 0.000000 0.000000 0.000000 -6.401261 4.661402 50.610035 -24.462306 -35.649294 -7.974404 -20.816966 28.693751 30.467076 0.000000 0.000000 0.000000 7.125000 0.000000 0.000000 12.636778 61.725153 -5.188780
-15.923067 16.311962 -1.577330 -5.357649 76.602562 0.127985 0.000000 0.000000 0.000000 -17.423702 -2.484540 -38.513618 11.112600 17.989699 63.146728 1.264551 -16.412726 -21.675727 0.413228 -4.126254 -11.432052 0.000000 0.000000 0.000000 18.859442 21.155880 -35.194454 -10.631019 -17.749575 61.577244 -1.952752 5.380255 -25.268977 -0.993181 6.342258 -17.780792 -3.212918 -3.651492 22.209628 -3.104655 -5.508235 4.201026 -0.013967 -2.479404 -7.767313 7.283099 6.638960 0.695265 -3.598453 8.921763 -4.996137 -2.455735 4.417823 -1.188141 0.000000 0.000000 0.000000 31.947813 -49.716155 -15.969311 54.026327 -54.495618 29.421798 22.252969 -12.289738 -30.960467 0.000000 0.000000 0.000000 -7.125000 0.000000 0.000000 -11.334755 62.581450 4.875153 0.000000 0.000000 0.000000 -6.351588 4.460969 50.848024 -24.675056 -35.869610 -8.098854 -21.080260 28.715843 30.361838 0.000000 0.000000 0.000000 7.125000 0.000000 0.000000 12.266974 61.687196 -5.023560
-15.944752 16.293557 -1.565535 -5.122248 76.730256 0.237150 0.000000 0.000000 0.000000 -17.402923 -2.544029 -38.580604 11.194901 18.029020 63.412768 1.252959 -16.498523 -21.625363 0.414094 -4.130519 -11.444084 0.000000 0.000000 0.000000 18.862351 21.107548 -35.326944 -10.732937 -17.801674 61.910966 -1.936963 5.197606 -25.185055 -1.064511 6.554545 -18.403925 -3.339996 -3.660109 22.511605 -3.146306 -5.548752 4.315046 0.036831 -2.490093 -7.791574 7.224616 6.635064 0.609005 -3.537331 8.914982 -5.201973 -2.428427 4.412300 -1.244940 0.000000 0.000000 0.000000 32.108540 -49.921582 -15.812024 54.207646 -54.557579 29.569477 22.200173 -12.339608 -30.883932 0.000000 0.000000 0.000000 -7.125000 0.000000 0.000000 -11.342817 62.491549 4.854637 0.000000 0.000000 0.000000 -6.324602 4.292112 51.121608 -24.908716 -36.109981 -8.236248 -21.327233 28.743020 30.316305 0.000000 0.000000 0.000000 7.125000 0.000000 0.000000 11.955808 61.704284 -4.898522
-15.968507 16.271958 -1.553582 -5.044212 76.824999 0.196857 0.000000 0.000000 0.000000 -17.332057 -2.576640 -38.693853 11.288180 18.073178 63.713814 1.239669 -16.583474 -21.563590 0.420541 -4.162132 -11.533179 0.000000 0.000000 0.000000 18.912944 21.087137 -35.476432 -10.840474 -17.856066 62.262288 -1.918694 4.952487 -25.092470 -1.177816 6.887605 -19.383141 -3.432616 -3.659911 22.834281 -3.179613 -5.572061 4.415228 0.074352 -2.492835 -7.844103 7.142072 6.632546 0.571487 -3.457062 8.914404 -5.446218 -2.394314 4.409756 -1.324166 0.000000 0.000000 0.000000 32.266133 -50.114319 -15.676769 54.396237 -54.621666 29.723160 22.145156 -12.403097 -30.820729 0.000000 0.000000 0.000000 -7.125000 0.000000 0.000000 -11.362733 62.414299 4.842591 0.000000 0.000000 0.000000 -6.318674 4.150305 51.429624 -25.160465 -36.367560 -8.384896 -21.552645 28.773808 30.329463 0.000000 0.000000 0.000000 7.125000 0.000000 0.000000 11.708569 61.774119 -4.815177
-15.995419 16.244109 -1.542402 -5.474935 76.889132 -0.325581 0.000000 0.000000 0.000000 -17.122385 -2.575033 -38.906470 11.407944 18.128743 64.099149 1.225477 -16.644260 -21.488478 0.443035 -4.269913 -11.837377 0.000000 0.000000 0.000000 19.090548 21.072074 -35.672447 -10.952072 -17.911295 62.625531 -1.897137 4.740941 -24.974045 -1.309229 7.243283 -20.440201 -3.408984 -3.673568 23.175968 -3.187981 -5.587057 4.504198 0.073080 -2.493772 -7.927047 7.013002 6.644462 0.571153 -3.325046 8.938571 -5.727386 -2.338549 4.419262 -1.424851 0.000000 0.000000 0.000000 32.475537 -50.301966 -15.499499 54.552286 -54.674218 29.850423 22.037040 -12.520653 -30.757332 0.000000 0.000000 0.000000 -7.125000 0.000000 0.000000 -11.443803 62.323388 4.853034 0.000000 0.000000 0.000000 -6.339360 3.987361 51.815227 -25.402806 -36.612445 -8.529163 -21.593950 28.782042 30.496892 0.000000 0.000000 0.000000 7.125000 0.000000 0.000000 11.774577 61.951054 -4.892097
